<svg id="bg" xmlns="http://www.w3.org/2000/svg" width="1600" height="850" viewBox="0 0 1600 850">
  <metadata><?xpacket begin="﻿" id="W5M0MpCehiHzreSzNTczkc9d"?>
<x:xmpmeta xmlns:x="adobe:ns:meta/" x:xmptk="Adobe XMP Core 5.6-c138 79.159824, 2016/09/14-01:09:01        ">
   <rdf:RDF xmlns:rdf="http://www.w3.org/1999/02/22-rdf-syntax-ns#">
      <rdf:Description rdf:about=""/>
   </rdf:RDF>
</x:xmpmeta>
                                                                                                    
                                                                                                    
                                                                                                    
                                                                                                    
                                                                                                    
                                                                                                    
                                                                                                    
                                                                                                    
                                                                                                    
                                                                                                    
                                                                                                    
                                                                                                    
                                                                                                    
                                                                                                    
                                                                                                    
                                                                                                    
                                                                                                    
                                                                                                    
                                                                                                    
                                                                                                    
                           
<?xpacket end="w"?></metadata>
<defs>
    <style>
      .cls-1 {
        fill: #ff9f1a;
      }

      .cls-1, .cls-2 {
        fill-rule: evenodd;
        opacity: 0.8;
      }

      .cls-2 {
        fill: #fff200;
      }
    </style>
  </defs>
  <path id="Rectangle_1_copy" data-name="Rectangle 1 copy" class="cls-1" d="M1600,0H1.312V760s-7.029,29.034,11.66,30c46.2,2.387-4.828-130,27.825-130S31.009,799.038,89.5,800c65.638,1.079-12.741-142.362,54.863-140,75.192,2.627,2.467,131.6,48.785,130,58.3-2.019-22.963-130,42.563-130,73.658,0.962-8.079,101.651,58.3,101,65.407-.641-23.325-102.923,56.549-101,73.141,0,11.127,127.564,65.966,130,54.564,2.423,8.4-131.709,57.714-130,56.578,1.961,5.521,159.229,56.549,158.1s8.294-152.909,56.549-150.477C665.4,671.551,587.706,787.832,643.3,790c59.418,2.316-4.784-132.508,48.3-130,62.119,2.935,8.428,98.1,56.549,98.1,45.426,0-22.952-128.1,58.183-128.1,89.99,0,10.411,208.1,64.937,208.1S848.476,660,927.14,660c38.6,0,2.54,135.5,56.8,130,38.97-3.95,3.795-110,47.73-110,47.39,0,15.23,130,56.8,130,43.89,0,8.33-149.5,55.87-150,82.37-2.581,10.09,150,66.33,150s-15.22-138.753,47.74-140c74.8,2.51,25.05,50,62.83,50,24.18-1.24-9.46-56.325,30.14-55.814,47.2,0.51-2.45,93.412,42.52,95.814,47.82,1.518-12.84-97.743,71.47-93.515,51.52,2.584,1.36,61.605,46.98,60.214,51.92-1.583-18.53-51.673,87.65-54.7V0Z"/>
  <path class="cls-2" d="M0,0H1600V780s7.03,29.035-11.66,30c-46.21,2.387,10.88-128.824-58.31-130-92.23-1.569,2.53,169.038-55.98,170-65.65,1.079,10.48-172.362-57.14-170-75.21,2.626-9.07,131.6-55.39,130-58.32-2.019,9.56-130-55.98-130-73.67.961,8.08,101.65-58.31,101-65.42-.641,23.33-102.924-56.56-101-73.16,0-1.13,147.564-55.98,150-54.57,2.423-8.4-151.709-57.72-150-56.59,1.96-20.17,98.1-56.56,98.1-40.376,0-8.3-92.908-56.562-90.477-78.079,3.933-.366,120.214-55.976,122.382-59.43,2.316-5.217-132.508-58.309-130-62.131,2.934-8.43,118.1-56.56,118.1-45.435,0,22.956-148.1-58.2-148.1C664.4,650,713.28,778.1,679.86,778.1c-32.822,0,4.906-98.1-55.879-98.1-38.605,0-2.54,135.5-56.81,130-38.974-3.95-13.8-110-57.741-110-47.4,0-15.229,130-56.811,130-43.9,0-8.335-149.5-55.879-150-67.39-.708-3.616,126.561-56.341,130-40.411,2.635,4.907-120.627-47.757-120-74.814,2.508-25.046,50-62.842,50-24.178-1.24,9.47-56.325-30.14-55.814-47.206.511,2.448,93.412-42.533,95.813-47.829,1.519,12.846-97.742-71.476-93.514C34.112,689.069,84.3,747.256,38.659,746.7,1.662,746.247,43.75,692.99,0,692V0Z"/>
</svg>
